<svg width="72" height="72" viewBox="0 0 72 72" fill="none" xmlns="http://www.w3.org/2000/svg">
<rect width="72" height="72" rx="36" fill="black" fill-opacity="0.3"/>
<rect x="1.5" y="1.5" width="69" height="69" rx="34.5" stroke="white" stroke-opacity="0.9" stroke-width="3"/>
<path d="M40.379 25.219L44.1049 27.8678C47.953 30.6036 49.877 31.9714 50.5551 33.6756C51.1483 35.1666 51.1483 36.8334 50.5551 38.3244C49.877 40.0286 47.953 41.3964 44.1048 44.1322L40.379 46.781C35.4018 50.3194 32.9132 52.0886 30.8417 51.9966C29.0378 51.9164 27.3613 51.0299 26.2622 49.575C25 47.9043 25 44.8191 25 38.6489V33.3512C25 27.1809 25 24.0957 26.2622 22.425C27.3613 20.9701 29.0378 20.0836 30.8417 20.0034C32.9132 19.9114 35.4018 21.6806 40.379 25.219Z" fill="white" fill-opacity="0.9"/>
</svg>
